# xmcd
#
# Track frame offsets: 
#        150
#        16992
#        34272
#        49225
#        64297
#        78117
#        98055
#        113380
#        126787
#        144207
#
# Disc length: 2134 seconds
#
# Revision: 3
# Processed by: cddbd v1.5.2PL0 Copyright (c) Steve Scherf et al.
# Submitted via: ExactAudioCopy v1.0b2
#
DISCID=7708540a
DTITLE=The Charlie Daniels Band - Simple Man
DYEAR=1989
DGENRE=Southern Rock
TTITLE0=(What this World Needs is) A Few More Rednecks
TTITLE1=Was it 26
TTITLE2=Oh, Atlanta
TTITLE3=Midnight Wind
TTITLE4=Saturday Night Down South
TTITLE5=Play Me Some Fiddle
TTITLE6=Simple Man
TTITLE7=Old Rock 'N Roller
TTITLE8=Mister DJ
TTITLE9=It's My Life
EXTD=
EXTT0=
EXTT1=
EXTT2=
EXTT3=
EXTT4=
EXTT5=
EXTT6=
EXTT7=
EXTT8=
EXTT9=
PLAYORDER=
